<svg xmlns="http://www.w3.org/2000/svg" viewBox="0 0 720 800">
  <!-- Coastline derived from Natural Earth 1:50m public-domain country data. -->
  <path d="M332.0,363.9 330.8,365.0 328.5,364.6 327.1,363.0 327.6,361.2 330.0,359.8 332.3,362.6 332.0,363.9ZM466.3,315.3 463.7,315.4 463.1,315.1 464.6,314.4 464.8,313.1 465.7,310.9 465.7,310.3 463.6,310.2 463.8,307.6 465.3,305.2 469.5,301.3 470.6,300.5 470.8,302.2 469.5,306.3 469.2,307.7 472.5,308.0 470.4,312.9 466.3,315.3ZM374.2,421.4 371.3,423.9 368.7,423.7 367.5,422.6 367.0,421.2 369.4,419.0 371.5,415.8 373.4,414.4 374.9,413.7 376.1,413.7 373.4,418.1 374.2,421.4ZM257.8,542.1 254.7,542.8 253.0,542.1 251.5,538.4 254.4,536.0 258.4,538.3 259.2,539.0 257.8,542.1ZM266.9,538.1 264.5,538.4 264.5,536.7 266.4,532.7 266.6,529.9 268.3,526.2 269.1,525.4 269.6,525.1 270.2,526.3 269.6,530.7 267.8,534.1 266.9,538.1ZM243.2,483.1 241.1,484.2 240.8,483.2 239.9,482.7 241.5,481.2 241.4,480.6 240.4,479.6 241.6,475.9 241.3,474.4 245.5,473.8 246.3,475.3 246.4,479.8 243.2,483.1ZM221.5,426.3 219.8,427.5 219.0,425.6 219.8,420.4 223.1,421.5 223.0,423.1 221.5,426.3ZM224.4,419.4 223.9,420.8 222.0,419.8 221.2,418.9 222.9,414.3 222.7,412.6 222.8,411.8 226.2,409.4 226.8,409.9 227.0,410.5 226.7,411.5 226.8,413.8 224.3,417.5 224.4,419.4ZM205.0,466.5 206.0,467.3 207.5,466.8 208.8,466.7 209.6,467.1 210.7,469.2 211.2,470.4 209.2,470.6 208.3,470.9 207.3,472.4 205.7,471.9 204.7,471.1 204.5,470.1 205.0,466.5ZM251.3,477.3 248.9,477.4 247.9,477.1 247.5,476.1 250.9,474.2 253.5,474.5 252.3,476.3 251.3,477.3ZM540.0,90.0 538.9,91.9 537.5,89.1 537.2,86.0 538.0,86.1 539.5,86.5 539.9,88.0 540.0,90.0ZM546.0,96.4 544.1,96.6 541.9,95.4 541.7,93.8 543.2,92.6 544.8,93.0 546.4,94.6 546.9,95.5 546.0,96.4ZM497.0,187.6 496.4,187.7 495.7,187.5 495.1,185.2 495.6,184.0 497.4,183.2 499.1,182.9 497.6,187.1 497.0,187.6ZM358.5,415.5 358.0,416.1 357.5,415.9 355.8,417.3 355.4,416.0 354.1,415.1 353.9,414.4 357.8,414.0 359.1,414.3 358.5,415.5ZM496.3,408.2 496.0,409.6 494.6,409.3 493.9,408.4 494.0,406.7 495.5,406.7 496.3,408.2ZM216.1,464.8 215.4,465.1 214.5,462.4 213.9,461.4 214.9,460.9 217.0,456.0 217.3,458.0 218.1,459.9 218.9,460.2 218.1,461.6 217.0,462.1 216.1,464.8ZM227.3,453.3 225.4,454.7 224.0,454.7 225.3,453.1 225.4,452.3 226.5,450.1 228.5,449.3 229.4,449.2 227.7,451.5 227.3,453.3ZM235.5,437.5 233.6,438.8 232.2,437.8 232.9,435.1 233.4,434.2 235.0,435.1 235.5,437.5ZM310.6,426.5 309.8,427.7 307.4,427.4 308.4,426.3 309.1,425.1 309.7,424.8 310.1,426.2 310.6,426.5ZM302.2,431.6 303.5,432.7 306.6,432.3 307.0,432.6 306.1,433.6 304.7,434.6 302.2,433.9 300.6,433.8 300.4,432.2 300.6,431.6 302.2,431.6ZM233.4,500.3 232.5,500.8 233.1,498.5 235.3,496.4 235.4,497.7 233.4,500.3ZM570.1,651.5 569.6,651.5 567.9,648.4 568.4,648.2 569.4,648.7 570.5,650.5 570.1,651.5ZM614.3,126.5 617.6,126.6 619.1,126.5 621.7,127.0 632.0,131.5 635.1,132.1 638.3,132.2 640.6,131.8 642.5,130.5 648.7,125.0 655.3,120.0 656.0,120.2 656.0,121.6 655.5,123.1 652.6,127.7 649.4,133.9 648.7,137.1 649.8,140.1 651.8,142.7 653.4,146.1 655.2,150.9 657.8,151.5 659.2,151.6 661.7,150.2 664.2,148.3 666.3,148.1 668.5,148.4 665.6,149.7 662.9,151.3 660.5,154.2 659.6,154.8 656.9,154.6 655.4,154.7 652.2,155.9 649.4,157.3 646.8,159.1 643.9,160.0 640.8,160.2 636.0,161.6 632.9,161.7 627.1,160.5 624.3,160.8 618.2,163.6 612.6,167.6 607.7,172.0 603.6,177.4 602.0,180.2 601.0,183.4 600.8,185.5 600.5,187.5 599.5,188.9 598.4,190.0 595.0,189.3 589.5,186.4 578.7,182.3 567.4,175.8 561.0,172.6 549.0,173.6 537.6,179.7 536.6,179.2 532.3,175.0 530.2,173.3 527.7,172.9 525.8,172.9 524.0,173.2 521.4,175.4 520.5,176.9 519.7,178.7 519.5,180.0 519.8,181.2 522.2,184.0 525.2,186.0 526.6,186.4 529.5,186.3 530.8,186.5 535.6,190.7 540.9,194.6 542.1,195.8 540.1,197.2 538.0,197.9 535.5,197.7 533.0,197.2 528.8,195.5 527.0,196.9 524.2,199.8 522.7,203.0 521.4,204.4 518.3,206.3 515.0,207.3 513.3,207.0 512.0,205.8 511.2,204.4 510.9,202.7 511.6,199.1 513.3,195.9 513.9,192.6 512.5,188.0 511.7,187.0 508.2,184.3 506.6,181.7 506.2,178.4 506.4,176.6 507.2,172.5 508.1,170.5 509.7,169.9 511.4,169.5 514.1,168.0 517.1,166.1 519.9,164.0 522.7,161.4 524.1,158.5 521.7,155.0 521.2,152.9 521.6,150.9 524.1,149.9 526.8,150.6 532.1,153.6 533.1,153.8 536.8,154.0 541.7,154.6 544.6,154.4 546.0,154.0 548.1,151.6 549.1,148.6 548.8,144.6 548.7,140.7 550.1,137.5 554.2,132.4 555.4,129.4 555.8,122.1 557.3,118.9 558.5,115.5 559.1,108.5 557.4,101.8 555.7,98.5 553.7,95.3 554.0,92.3 555.6,89.5 555.7,88.7 556.0,88.0 559.0,87.4 560.4,86.8 561.7,85.5 563.3,84.7 564.5,85.5 565.4,86.9 569.6,90.2 576.2,96.2 584.0,105.4 588.9,109.9 594.0,114.0 599.8,118.1 605.8,121.7 609.7,123.4 612.5,126.1 614.3,126.5ZM272.7,441.9 276.3,442.8 277.9,442.9 279.3,442.5 281.5,441.3 283.7,440.4 285.4,440.9 286.8,441.9 287.6,443.4 287.2,444.9 284.6,448.2 282.5,451.8 287.4,452.4 292.2,452.4 291.1,454.6 290.9,456.5 292.4,457.4 293.6,458.6 293.3,459.7 292.6,460.8 295.2,462.4 295.1,463.5 294.4,464.7 287.8,472.2 285.8,476.0 284.5,480.2 283.2,483.3 282.3,486.5 281.7,489.9 280.4,493.5 280.8,496.6 280.4,499.9 277.1,507.9 274.7,507.7 271.8,506.7 269.9,506.9 268.9,508.7 270.7,512.3 265.4,516.6 259.5,519.5 259.5,518.2 260.0,517.2 260.9,516.3 261.5,515.3 262.3,511.9 261.9,508.5 260.1,504.2 260.0,502.7 261.2,502.1 262.1,501.9 262.5,501.3 262.5,499.9 262.0,498.8 260.3,498.5 258.7,498.4 257.6,500.0 256.0,503.1 255.3,506.2 255.6,507.9 256.3,509.4 258.4,512.0 257.8,513.5 256.9,514.6 249.4,512.0 247.8,511.8 246.4,511.2 245.0,507.7 248.0,506.9 248.9,506.5 249.3,505.4 249.7,502.0 248.3,499.1 247.1,498.1 246.1,496.9 246.7,494.5 246.3,491.5 246.2,487.3 246.8,486.5 249.6,485.7 251.7,483.4 253.5,480.9 256.1,476.3 258.3,471.4 256.2,471.2 254.4,470.3 256.4,468.0 255.8,465.1 252.9,461.5 251.3,457.2 248.8,455.4 247.4,454.7 245.8,455.7 244.4,456.9 245.7,459.6 245.5,462.0 245.7,464.5 247.0,464.6 248.6,464.0 249.8,464.4 250.5,465.7 250.7,467.3 250.2,468.9 249.0,469.8 247.6,469.7 246.2,468.8 245.1,467.6 242.5,466.9 239.7,468.3 237.0,471.3 234.8,472.9 235.8,470.6 236.3,468.2 235.2,466.6 232.6,463.7 232.0,462.1 231.9,460.2 232.3,458.2 235.0,460.4 236.4,463.2 238.3,464.4 240.8,464.5 238.9,460.4 238.2,459.3 235.6,457.5 232.0,454.4 229.7,452.9 230.5,449.7 231.8,449.1 233.0,449.2 236.8,450.3 237.2,448.7 236.6,447.9 236.3,446.9 238.8,445.5 242.9,444.3 243.8,443.8 244.5,442.7 245.5,442.1 248.4,442.1 250.9,441.0 252.9,438.0 253.3,436.3 254.1,435.0 259.1,432.5 260.3,432.2 263.7,432.5 266.7,433.8 268.2,436.7 269.6,439.8 272.7,441.9ZM358.7,422.3 362.4,423.6 366.2,423.2 366.2,428.7 366.7,430.5 367.8,432.2 367.2,434.6 368.9,435.4 363.8,438.1 359.2,441.7 357.3,444.2 355.6,446.8 354.6,449.6 353.9,452.6 352.4,451.4 347.9,446.5 345.1,445.2 340.5,444.5 339.1,444.7 329.7,449.2 328.5,452.5 325.9,457.5 324.7,459.2 323.4,459.6 322.4,460.5 321.4,464.7 318.5,467.4 316.7,467.4 313.7,466.7 312.3,467.1 314.1,462.9 311.3,462.4 308.4,462.5 308.3,459.8 306.6,458.2 307.8,456.2 307.9,454.6 308.6,453.7 308.9,452.3 308.8,451.2 307.0,450.9 305.9,450.1 306.1,447.1 305.1,447.0 302.6,447.5 297.3,449.8 295.9,449.8 298.1,448.2 302.8,445.9 304.9,444.6 309.5,441.0 312.4,439.3 313.9,436.3 314.3,434.4 315.3,432.8 316.2,430.2 317.7,429.4 320.2,427.1 321.7,427.4 323.4,430.1 325.6,432.2 327.2,432.0 330.1,430.9 331.4,430.7 334.7,430.8 337.7,429.5 338.9,427.9 339.4,426.0 338.3,422.7 339.7,423.0 341.1,422.9 344.3,420.8 347.6,419.6 351.0,419.2 354.9,420.4 358.7,422.3ZM544.2,208.8 545.3,209.4 550.3,207.9 549.3,212.5 548.8,217.1 549.2,224.8 549.6,228.3 550.5,231.7 552.6,234.1 555.4,235.8 559.5,241.3 561.7,248.0 563.2,251.2 564.4,254.7 564.8,256.2 564.8,257.8 564.4,259.9 564.8,261.7 564.4,267.1 562.6,273.4 562.3,276.7 560.7,277.3 559.8,278.8 559.0,279.5 558.0,280.0 556.7,280.1 555.8,280.8 555.4,282.5 554.8,284.0 553.7,285.5 552.7,287.1 552.0,291.0 551.7,295.1 550.6,297.9 547.9,298.6 544.9,298.6 540.9,299.9 540.1,300.6 537.0,305.5 536.1,308.4 536.1,311.5 536.9,315.3 538.1,319.0 539.0,326.0 538.0,336.6 537.1,339.9 535.2,342.2 533.7,343.3 532.4,344.6 530.7,348.0 527.9,354.9 527.7,356.6 527.7,358.4 527.0,360.8 526.5,363.1 526.9,365.7 527.8,368.2 531.5,374.6 533.0,376.5 534.6,378.3 528.3,380.2 527.1,381.0 523.4,384.7 522.1,388.2 522.2,392.0 521.6,393.4 520.6,394.6 519.5,395.3 515.3,397.1 512.6,398.9 509.9,401.6 508.9,403.0 506.8,402.6 505.6,401.3 506.8,399.7 506.4,397.8 507.0,393.0 506.3,391.1 508.5,389.6 509.5,387.3 511.7,385.4 513.3,383.8 513.6,382.4 512.2,381.0 510.7,380.0 508.6,379.9 506.5,380.3 505.2,381.6 504.8,383.5 504.9,384.4 504.7,385.2 501.6,387.7 502.0,390.4 502.9,391.8 504.1,392.4 503.7,393.4 502.2,395.5 501.2,395.7 499.2,392.7 496.8,391.0 493.8,391.1 490.7,391.7 488.4,393.7 487.6,395.4 487.1,397.1 487.3,401.3 486.3,404.8 484.4,407.9 483.5,409.0 481.2,411.1 479.6,411.4 478.5,410.5 477.5,409.0 478.7,403.7 478.7,400.8 481.4,399.2 479.2,397.1 476.4,396.3 472.6,397.4 471.5,398.7 470.8,400.4 468.7,402.5 466.4,404.6 463.8,408.0 462.1,412.1 456.4,410.8 453.3,410.5 450.2,410.6 444.7,410.1 438.6,410.9 431.7,412.5 432.1,411.4 437.8,408.9 438.0,408.2 437.4,406.8 436.0,406.8 432.6,407.2 430.9,407.0 430.2,405.6 429.0,405.0 428.2,405.5 428.5,408.4 427.6,408.7 426.5,408.0 426.9,405.8 426.1,402.6 426.0,400.6 427.2,398.9 426.0,398.2 424.7,398.5 423.1,399.3 421.6,400.5 418.6,406.3 417.4,409.6 419.6,412.3 425.7,416.1 426.8,417.0 426.8,418.6 426.1,420.3 424.4,421.0 417.7,422.3 411.9,424.7 410.2,427.2 405.0,436.7 400.7,443.1 394.8,445.4 388.2,443.4 386.6,441.1 385.4,438.3 382.9,435.8 380.7,433.1 379.5,429.8 379.7,424.5 378.7,421.3 379.6,420.5 383.2,418.6 384.4,417.5 386.4,415.0 387.1,413.6 387.2,411.5 385.6,410.4 381.4,410.4 377.1,411.1 374.1,410.1 370.2,407.6 369.0,407.0 364.8,406.9 361.8,407.4 358.8,408.3 355.7,408.6 354.6,409.1 351.0,412.2 348.1,414.2 345.7,415.2 340.3,415.4 337.6,416.1 334.8,417.1 334.0,417.0 331.1,418.4 327.7,419.7 325.8,420.9 322.5,420.1 315.9,422.3 312.7,422.6 309.4,421.4 306.4,419.4 303.4,420.3 301.4,423.2 300.5,429.0 299.3,431.7 299.0,434.8 297.4,434.3 288.6,428.6 288.0,428.4 280.9,429.4 279.0,429.9 276.7,431.0 274.3,431.6 272.1,430.7 269.9,429.4 267.9,429.8 265.8,430.7 265.0,422.1 265.4,421.0 266.7,419.5 268.1,418.2 271.6,417.8 275.1,418.2 277.6,417.6 279.7,415.9 281.9,413.5 284.4,411.5 287.8,410.0 291.1,408.2 294.0,405.7 296.7,403.0 299.3,401.0 302.0,399.3 306.2,395.3 311.7,390.8 313.8,387.5 315.2,386.5 319.9,384.7 326.2,383.2 329.2,383.3 332.2,386.2 333.8,385.8 335.4,385.1 338.6,384.7 342.0,385.1 345.2,385.2 348.5,384.8 354.8,383.8 358.1,382.7 361.3,381.2 372.8,380.1 380.7,377.6 382.0,377.8 383.2,378.3 383.3,380.2 382.3,382.2 383.2,383.5 384.8,384.2 392.3,384.5 394.4,384.9 397.5,383.5 400.4,381.8 403.4,379.5 405.6,377.0 403.6,373.8 403.2,370.3 404.8,366.5 407.2,363.3 410.1,361.4 412.7,359.1 418.0,352.8 421.8,347.7 423.2,341.5 422.4,334.0 425.8,328.5 429.0,327.6 435.4,325.1 438.7,324.3 439.2,325.4 439.1,326.9 434.1,331.5 431.2,333.4 429.5,334.0 427.9,334.8 427.3,336.5 429.8,339.2 430.5,341.2 430.3,343.1 430.5,344.9 433.3,346.8 436.6,347.4 438.0,347.4 439.2,346.9 443.0,342.3 443.9,341.5 454.7,338.1 460.0,335.5 462.9,334.8 465.6,333.4 471.8,328.2 474.1,325.8 476.2,323.2 477.8,320.1 479.1,316.8 480.9,314.7 490.7,309.7 493.8,307.0 494.8,305.7 496.0,301.9 496.9,298.0 498.1,294.9 499.7,292.0 501.8,289.1 504.2,286.4 505.7,283.6 507.7,276.9 508.6,273.1 509.3,271.8 510.4,270.7 511.3,269.3 512.0,267.7 512.3,266.1 512.7,261.3 512.5,257.5 510.9,254.3 509.5,253.4 508.1,253.4 505.9,253.7 504.0,252.4 504.4,251.2 506.3,251.0 507.6,250.4 508.5,249.3 510.3,245.9 511.3,242.2 511.4,240.6 510.0,237.6 508.9,234.0 508.9,232.0 510.1,229.8 511.8,228.0 513.3,227.6 514.9,227.5 516.4,226.8 517.8,225.7 518.6,224.6 519.8,221.6 520.3,219.8 519.5,215.2 520.3,213.9 521.4,213.1 522.9,213.7 524.4,213.8 526.2,213.6 527.9,214.1 528.3,215.3 529.3,223.2 530.0,224.3 531.2,225.1 532.6,225.0 533.8,223.7 534.7,222.1 536.3,221.8 541.2,223.5 542.9,222.3 544.1,220.3 545.1,216.9 544.6,213.8 543.4,212.7 542.2,212.9 541.1,213.7 539.9,214.2 532.6,215.8 532.7,212.4 534.2,207.2 535.1,205.6 536.3,204.8 539.4,205.7 540.9,206.3 544.2,208.8ZM86.9,714.5 85.3,719.3 84.0,719.9 82.7,719.6 81.3,716.9 82.3,715.9 83.6,716.4 84.7,716.2 87.2,712.4 87.7,713.0 86.9,714.5ZM76.0,721.6 74.3,722.0 72.2,721.5 70.4,721.4 70.4,720.5 72.3,719.5 72.4,718.3 72.8,717.6 77.2,719.1 77.1,720.3 76.0,721.6ZM118.0,707.7 115.7,708.5 113.3,708.0 113.7,703.8 114.5,704.4 115.0,705.9 116.9,706.7 118.0,707.7ZM194.0,650.4 191.4,651.8 190.4,653.4 188.0,654.0 185.7,656.3 183.4,656.7 183.5,658.6 184.4,660.2 182.9,660.4 181.3,662.3 181.2,663.7 181.8,664.9 181.7,665.4 179.7,667.1 177.6,667.2 177.5,665.4 177.7,664.0 179.6,660.8 179.7,657.0 181.5,656.5 182.2,656.0 185.0,653.3 185.5,652.2 184.1,651.1 184.2,649.8 184.5,649.2 186.8,649.6 187.8,650.6 188.3,650.7 189.6,650.0 190.3,648.7 192.8,646.1 193.9,643.5 196.0,645.6 195.4,648.4 194.0,650.4ZM213.9,618.4 212.8,618.9 211.3,618.2 210.8,614.7 211.5,613.1 212.7,612.7 213.7,615.7 214.4,616.9 213.9,618.4ZM226.2,603.7 223.9,606.2 221.4,604.0 218.4,602.5 219.9,602.1 220.7,601.5 220.8,600.6 222.7,599.2 226.5,598.1 227.8,598.1 229.1,597.1 229.6,596.2 230.1,595.7 232.6,594.5 233.3,595.9 233.2,597.0 231.3,597.7 229.5,599.2 227.8,601.0 226.3,601.8 225.9,602.4 226.2,603.7ZM222.7,606.9 222.9,607.6 220.3,607.0 219.2,604.2 221.0,604.7 221.5,605.7 222.7,606.9ZM506.7,458.3 506.2,458.6 504.9,457.7 504.8,456.8 505.0,456.2 505.8,456.1 507.6,457.2 506.7,458.3Z" fill="#d5ccb2" fill-opacity=".58" fill-rule="evenodd" stroke="#778992" stroke-opacity=".72" stroke-width="2.2" stroke-linejoin="round" vector-effect="non-scaling-stroke"/>
</svg>
