<svg xmlns="http://www.w3.org/2000/svg" width="1200" height="630" viewBox="0 0 1200 630" role="img" aria-labelledby="title desc">
  <title id="title">Japan 2027</title>
  <desc id="desc">A dark illustrated mountain landscape with a red sun</desc>
  <defs>
    <linearGradient id="sky" x1="0" y1="0" x2="0" y2="1">
      <stop offset="0" stop-color="#34454b"/>
      <stop offset="1" stop-color="#0c1317"/>
    </linearGradient>
    <radialGradient id="glow">
      <stop offset="0" stop-color="#e34a2b" stop-opacity=".55"/>
      <stop offset="1" stop-color="#e34a2b" stop-opacity="0"/>
    </radialGradient>
  </defs>
  <rect width="1200" height="630" fill="url(#sky)"/>
  <circle cx="930" cy="155" r="150" fill="url(#glow)"/>
  <circle cx="930" cy="155" r="70" fill="#e34a2b"/>
  <path d="M0 470 210 320l120 92 170-210 130 160 100-72 270 180Z" fill="#172329"/>
  <path d="m275 454 225-252 130 160 100-72 250 180-705-16Z" fill="#10191e"/>
  <path d="m440 272 60-70 43 53-32-10-18 16-18-8Z" fill="#f3f1eb" fill-opacity=".7"/>
  <path d="M0 520c240-42 420-34 610 6s380 54 590-8v112H0Z" fill="#0c1317"/>
  <circle cx="72" cy="70" r="8" fill="#e34a2b"/>
  <line x1="70" y1="558" x2="1130" y2="558" stroke="#f3f1eb" stroke-opacity=".28"/>
</svg>
